<svg fill="#000000" xmlns="http://www.w3.org/2000/svg"  viewBox="0 0 50 50" width="50px" height="50px"><path d="M 18.984375 -0.013671875 A 1.0001 1.0001 0 0 0 18 1 L 18 2.5859375 L 16.707031 1.2929688 A 1.0001 1.0001 0 1 0 15.292969 2.7070312 L 16.546875 3.9609375 C 16.258315 4.2006374 15.993277 4.4723329 15.761719 4.7753906 C 14.96155 5.8226319 14.476811 7.20617 14.40625 8.7363281 L 14.150391 14.296875 C 13.814579 21.567096 14.049377 25.922531 14.841797 33.105469 A 1.0001 1.0001 0 0 0 14.853516 33.183594 L 15.332031 35.667969 C 13.381561 37.391379 11.877278 39.639264 11.0625 42.246094 L 9.0449219 48.701172 A 1.0007359 1.0007359 0 1 0 10.955078 49.298828 L 12.970703 42.84375 C 14.616471 37.578219 19.484238 34 25 34 C 30.515762 34 35.383529 37.578219 37.029297 42.84375 L 39.044922 49.298828 A 1.0007358 1.0007358 0 0 0 40.955078 48.701172 L 38.9375 42.246094 C 38.122861 39.639709 36.617953 37.393219 34.667969 35.669922 L 35.146484 33.183594 A 1.0001 1.0001 0 0 0 35.158203 33.105469 C 35.950623 25.922531 36.185421 21.567096 35.849609 14.296875 L 35.59375 8.7363281 C 35.523189 7.20617 35.03845 5.8226319 34.238281 4.7753906 C 34.006723 4.4723329 33.741685 4.2006374 33.453125 3.9609375 L 34.707031 2.7070312 A 1.0001 1.0001 0 1 0 33.292969 1.2929688 L 32 2.5859375 L 32 1 A 1.0001 1.0001 0 0 0 30.984375 -0.013671875 A 1.0001 1.0001 0 0 0 30 1 L 30 2.5859375 L 28.707031 1.2929688 A 1.0001 1.0001 0 1 0 27.292969 2.7070312 L 28.494141 3.9082031 C 28.179143 4.1602012 27.890017 4.4490547 27.640625 4.7753906 C 26.840357 5.8225628 26.356282 7.2062758 26.285156 8.7363281 L 26.148438 11.697266 C 25.812049 18.992618 25.733748 24.731976 26.419922 32.076172 C 25.951035 32.030434 25.478373 32 25 32 C 24.521627 32 24.048965 32.030434 23.580078 32.076172 C 24.266152 24.732052 24.186952 18.992761 23.849609 11.697266 L 23.712891 8.7363281 C 23.642329 7.20617 23.159544 5.8226319 22.359375 4.7753906 C 22.110014 4.4490332 21.820855 4.1602022 21.505859 3.9082031 L 22.707031 2.7070312 A 1.0001 1.0001 0 1 0 21.292969 1.2929688 L 20 2.5859375 L 20 1 A 1.0001 1.0001 0 0 0 18.984375 -0.013671875 z M 19.107422 5.0058594 C 19.695204 5.0220568 20.269818 5.3362206 20.769531 5.9902344 C 21.282613 6.6617431 21.661405 7.6692831 21.714844 8.828125 L 21.851562 11.789062 C 22.195624 19.229869 22.270418 24.923302 21.539062 32.417969 C 19.953997 32.805091 18.461097 33.456592 17.111328 34.324219 L 16.826172 32.851562 C 16.042019 25.735954 15.816846 21.567538 16.148438 14.388672 L 16.404297 8.828125 C 16.457735 7.6692831 16.836528 6.6617431 17.349609 5.9902344 C 17.838148 5.350848 18.400423 5.0408275 18.974609 5.0117188 A 1.0001 1.0001 0 0 0 19.107422 5.0058594 z M 30.890625 5.0058594 A 1.0001 1.0001 0 0 0 31.019531 5.0117188 C 31.595733 5.0389653 32.160209 5.3486974 32.650391 5.9902344 C 33.163472 6.6617431 33.542265 7.6692831 33.595703 8.828125 L 33.851562 14.388672 C 34.183155 21.567538 33.95798 25.73596 33.173828 32.851562 L 32.890625 34.324219 C 31.539974 33.455814 30.045271 32.805169 28.458984 32.417969 C 27.727693 24.923381 27.803383 19.230016 28.146484 11.789062 L 28.283203 8.828125 C 28.337078 7.6691774 28.717237 6.6618122 29.230469 5.9902344 C 29.729782 5.3368702 30.303524 5.0226995 30.890625 5.0058594 z M 19 18 A 2 3 0 0 0 19 24 A 2 3 0 0 0 19 18 z M 31 18 A 2 3 0 0 0 31 24 A 2 3 0 0 0 31 18 z M 24.984375 36 A 1.0001 1.0001 0 0 0 24.292969 36.292969 L 22.292969 38.292969 A 1.0001 1.0001 0 1 0 23.707031 39.707031 L 25 38.414062 L 26.292969 39.707031 A 1.0001 1.0001 0 0 0 27.447266 39.894531 L 29.447266 38.894531 A 1.0001163 1.0001163 0 1 0 28.552734 37.105469 L 27.197266 37.783203 L 25.707031 36.292969 A 1.0001 1.0001 0 0 0 24.984375 36 z M 31.992188 40.986328 A 1.0001 1.0001 0 0 0 31.292969 42.707031 L 31.390625 42.804688 C 29.44987 44.156356 27.276507 45 25 45 C 22.723493 45 20.550126 44.156359 18.609375 42.804688 L 18.707031 42.707031 A 1.0001 1.0001 0 0 0 17.980469 40.990234 A 1.0001 1.0001 0 0 0 17.292969 41.292969 L 16.408203 42.177734 A 1.0001 1.0001 0 0 0 16.177734 42.408203 L 15.292969 43.292969 A 1.0001 1.0001 0 1 0 16.707031 44.707031 L 17.169922 44.244141 C 19.49673 45.953781 22.184172 47 25 47 C 27.815828 47 30.50327 45.953781 32.830078 44.244141 L 33.292969 44.707031 A 1.0001 1.0001 0 1 0 34.707031 43.292969 L 33.828125 42.414062 A 1.0001 1.0001 0 0 0 33.59375 42.179688 L 32.707031 41.292969 A 1.0001 1.0001 0 0 0 31.992188 40.986328 z"/></svg>